<svg width="69" height="26" viewBox="0 0 69 26" fill="none" xmlns="http://www.w3.org/2000/svg">
<path fill-rule="evenodd" clip-rule="evenodd" d="M11.1117 1.25166V11.5854L3.76928 1.25166H0.505997V20.2875H4.85705V9.95376L12.1994 20.2875H15.4627V1.25166H11.1117ZM19.6407 5.49393C20.9732 5.49393 22.0882 4.37897 22.0882 3.04646C22.0882 1.71396 20.9732 0.598999 19.6407 0.598999C18.3082 0.598999 17.1933 1.71396 17.1933 3.04646C17.1933 4.37897 18.3082 5.49393 19.6407 5.49393ZM17.6012 20.2875H21.6803V6.69047H17.6012V20.2875ZM31.8138 6.30975C29.9918 6.30975 28.6593 6.93522 27.7619 7.96859V6.69047H23.6828V25.7263H27.7619V19.0094C28.6593 20.0428 29.9918 20.6682 31.8138 20.6682C35.3762 20.6682 38.3132 17.5409 38.3132 13.489C38.3132 9.43707 35.3762 6.30975 31.8138 6.30975ZM30.998 16.8067C29.1216 16.8067 27.7619 15.5285 27.7619 13.489C27.7619 11.4494 29.1216 10.1713 30.998 10.1713C32.8744 10.1713 34.2341 11.4494 34.2341 13.489C34.2341 15.5285 32.8744 16.8067 30.998 16.8067ZM47.7668 6.30975C45.9448 6.30975 44.6123 6.93522 43.7149 7.96859V6.69047H39.6358V25.7263H43.7149V19.0094C44.6123 20.0428 45.9448 20.6682 47.7668 20.6682C51.3292 20.6682 54.2662 17.5409 54.2662 13.489C54.2662 9.43707 51.3292 6.30975 47.7668 6.30975ZM46.951 16.8067C45.0746 16.8067 43.7149 15.5285 43.7149 13.489C43.7149 11.4494 45.0746 10.1713 46.951 10.1713C48.8274 10.1713 50.1871 11.4494 50.1871 13.489C50.1871 15.5285 48.8274 16.8067 46.951 16.8067ZM64.1549 6.69047L61.5987 15.0119L58.5802 6.69047H54.0931L59.5048 19.662C58.9065 21.3209 58.0091 21.9191 56.1055 21.9191V25.7263C59.9127 25.9167 62.3329 24.2034 63.8558 19.8796L68.506 6.69047H64.1549Z" fill="#1D1D1D"/>
</svg>
