<svg width="17" height="17" viewBox="0 0 17 17" fill="none" xmlns="http://www.w3.org/2000/svg">
<path fill-rule="evenodd" clip-rule="evenodd" d="M8.67441 0.815918C7.2464 0.815918 5.92042 1.17591 4.69641 1.89592C3.5084 2.59192 2.56641 3.53391 1.87041 4.72192C1.16241 5.94592 0.808411 7.27191 0.808411 8.69992C0.808411 10.1279 1.16241 11.4539 1.87041 12.6779C2.56641 13.8659 3.5084 14.8079 4.69641 15.5039C5.92042 16.2239 7.2464 16.5809 8.67441 16.5749C10.1024 16.5689 11.4284 16.2119 12.6524 15.5039C13.8404 14.8079 14.7824 13.8659 15.4784 12.6779C16.1864 11.4539 16.5434 10.1279 16.5494 8.69992C16.5554 7.27191 16.1984 5.94592 15.4784 4.72192C14.7824 3.53391 13.8404 2.59192 12.6524 1.89592C11.4284 1.18791 10.1024 0.833918 8.67441 0.833918V0.815918ZM13.4984 4.90192C13.8944 5.40592 14.2034 5.95492 14.4254 6.54892C14.6474 7.14292 14.7764 7.76391 14.8124 8.41192C13.9364 8.21992 13.0964 8.12392 12.2924 8.12392C11.6924 8.12392 11.0984 8.17792 10.5104 8.28592C10.3904 7.99792 10.2524 7.67992 10.0964 7.33192C11.4764 6.71991 12.6104 5.90992 13.4984 4.90192ZM8.67441 2.56192C9.38241 2.56192 10.0634 2.67892 10.7174 2.91292C11.3714 3.14692 11.9684 3.47992 12.5084 3.91192C11.7644 4.79992 10.7564 5.51992 9.48441 6.07192C8.83641 4.79991 8.12841 3.67792 7.36041 2.70592C7.80441 2.60992 8.24241 2.56192 8.67441 2.56192ZM5.95641 3.19192C6.72441 4.09192 7.45641 5.20791 8.15241 6.53992C7.31241 6.79192 6.41242 6.97192 5.45241 7.07992C4.72041 7.17592 4.00041 7.22392 3.29241 7.22392L2.71641 7.20592C2.93241 6.32991 3.32541 5.54092 3.89541 4.83892C4.46541 4.13691 5.15241 3.58792 5.95641 3.19192ZM2.53641 8.69992C2.53641 8.67592 2.53641 8.64592 2.53641 8.60992C2.74041 8.62192 2.96241 8.62792 3.20241 8.62792C5.27842 8.61592 7.1384 8.34592 8.78241 7.81792C8.91441 8.10592 9.03441 8.37592 9.14241 8.62792C7.8584 9.05992 6.70642 9.74391 5.68641 10.6799C5.02641 11.2799 4.46241 11.9399 3.99441 12.6599C3.52641 12.1079 3.16641 11.4959 2.91441 10.8239C2.66241 10.1519 2.53641 9.44392 2.53641 8.69992ZM8.67441 14.8379C8.00241 14.8379 7.35741 14.7329 6.73941 14.5229C6.12141 14.3129 5.54841 14.0159 5.02041 13.6319C5.40441 13.0079 5.87841 12.4259 6.44241 11.8859C7.39042 10.9739 8.4584 10.3259 9.64641 9.94192C10.1504 11.3699 10.5524 12.8699 10.8524 14.4419C10.1444 14.7059 9.41841 14.8379 8.67441 14.8379ZM12.1484 13.7579C11.8604 12.3299 11.4824 10.9499 11.0144 9.61792C11.4344 9.55792 11.8544 9.52792 12.2744 9.52792H12.2924C13.0484 9.52792 13.8524 9.62392 14.7044 9.81592C14.5604 10.6319 14.2634 11.3789 13.8134 12.0569C13.3634 12.7349 12.8084 13.3019 12.1484 13.7579Z" fill="white"/>
</svg>
