<svg width="16" height="17" viewBox="0 0 16 17" fill="none" xmlns="http://www.w3.org/2000/svg">
<path fill-rule="evenodd" clip-rule="evenodd" d="M11.1358 6.44992H15.6898V6.66592V13.5239C15.6898 14.0759 15.5518 14.5859 15.2758 15.0539C14.9998 15.5219 14.6278 15.8909 14.1598 16.1609C13.6918 16.4309 13.1818 16.5659 12.6298 16.5659H3.08974C2.53773 16.5779 2.02773 16.4459 1.55973 16.1699C1.09172 15.8939 0.716725 15.5219 0.434721 15.0539C0.152718 14.5859 0.0117188 14.0759 0.0117188 13.5239V6.46792H4.56575C3.79774 7.63192 3.62974 8.84391 4.06175 10.1039C4.36175 10.9559 4.89575 11.6279 5.66376 12.1199C6.16776 12.4559 6.71076 12.6629 7.29277 12.7409C7.87477 12.8189 8.44777 12.7739 9.01178 12.6059C9.57578 12.4379 10.0798 12.1559 10.5238 11.7599C10.9678 11.3639 11.3038 10.8839 11.5318 10.3199C11.7838 9.70792 11.8858 9.08392 11.8378 8.44792C11.7778 7.75191 11.5438 7.08592 11.1358 6.44992V6.44992ZM1.95572 4.70392V1.30192C1.95572 1.16992 1.96772 1.08892 1.99172 1.05892C2.01572 1.02892 2.09972 0.989918 2.24372 0.941918L2.40572 0.905918V4.70392H3.05372V0.833918H3.46772V4.70392H4.11572V0.815918H12.6297C13.1697 0.815918 13.6707 0.950917 14.1327 1.22092C14.5947 1.49092 14.9667 1.85392 15.2487 2.30992C15.5307 2.76592 15.6777 3.25792 15.6897 3.78592C15.7017 4.08592 15.7077 4.44592 15.7077 4.86592C15.6957 5.75392 15.6897 6.11992 15.6897 5.96392H10.8657C10.7577 5.96392 10.6737 5.92792 10.6137 5.85592C10.0857 5.37592 9.49172 5.05192 8.83172 4.88392C8.17171 4.71592 7.51172 4.71892 6.85172 4.89292C6.19172 5.06692 5.59772 5.39392 5.06972 5.87392C5.00972 5.93392 4.94972 5.96392 4.88972 5.96392H0.119719L0.0297187 5.94592V5.26192C0.0177187 5.40592 0.0117188 5.12992 0.0117188 4.43392C0.0117188 4.10992 0.0237186 3.83392 0.0477187 3.60592C0.107719 2.72991 0.509715 2.00392 1.25372 1.42792L1.32572 1.40992V4.70392H1.95572ZM14.2677 3.46192C14.2677 3.46192 14.2677 3.32392 14.2677 3.04792V2.63392C14.2677 2.47792 14.2227 2.35492 14.1327 2.26492C14.0427 2.17492 13.9257 2.12992 13.7817 2.12992C13.2297 2.11792 12.6717 2.11792 12.1077 2.12992C11.9517 2.12992 11.8317 2.17792 11.7477 2.27392C11.6637 2.36992 11.6217 2.49592 11.6217 2.65192V4.30792C11.6217 4.46392 11.6667 4.58692 11.7567 4.67692C11.8467 4.76692 11.9637 4.81192 12.1077 4.81192H13.7637C13.9197 4.81192 14.0427 4.76692 14.1327 4.67692C14.2227 4.58692 14.2677 4.46392 14.2677 4.30792V3.46192ZM7.85972 11.8499C7.29572 11.8499 6.77372 11.7149 6.29372 11.4449C5.81372 11.1749 5.43572 10.8029 5.15972 10.3289C4.88372 9.85492 4.74572 9.33892 4.74572 8.78092C4.74572 8.22292 4.88372 7.70692 5.15972 7.23292C5.43572 6.75892 5.81372 6.38092 6.29372 6.09892C6.77372 5.81692 7.29272 5.67592 7.85072 5.67592C8.40872 5.67592 8.92472 5.81692 9.39872 6.09892C9.87272 6.38092 10.2477 6.75892 10.5237 7.23292C10.7997 7.70692 10.9377 8.22292 10.9377 8.78092C10.9377 9.33892 10.7997 9.85492 10.5237 10.3289C10.2477 10.8029 9.87272 11.1749 9.39872 11.4449C8.92472 11.7149 8.41172 11.8499 7.85972 11.8499ZM10.1277 8.77192C10.1277 8.36392 10.0257 7.98292 9.82172 7.62892C9.61772 7.27492 9.34172 6.99592 8.99372 6.79192C8.64572 6.58792 8.26472 6.48592 7.85072 6.48592C7.43672 6.48592 7.05572 6.58792 6.70772 6.79192C6.35972 6.99592 6.08372 7.27192 5.87972 7.61992C5.67572 7.96792 5.57372 8.34892 5.57372 8.76292C5.57372 9.17692 5.67572 9.55792 5.87972 9.90592C6.08372 10.2539 6.35972 10.5329 6.70772 10.7429C7.05572 10.9529 7.43672 11.0579 7.85072 11.0579C8.26472 11.0579 8.64572 10.9559 8.99372 10.7519C9.34172 10.5479 9.61772 10.2719 9.82172 9.92392C10.0257 9.57592 10.1277 9.19192 10.1277 8.77192Z" fill="white"/>
</svg>
