<svg width="16" height="17" viewBox="0 0 16 17" fill="none" xmlns="http://www.w3.org/2000/svg">
<path fill-rule="evenodd" clip-rule="evenodd" d="M14.6779 0.815918H1.33992C1.01592 0.815918 0.739923 0.926917 0.511922 1.14892C0.283921 1.37092 0.169922 1.63792 0.169922 1.94992V15.4499C0.169922 15.7619 0.283921 16.0259 0.511922 16.2419C0.739923 16.4579 1.00992 16.5659 1.32192 16.5659H14.6779C14.9899 16.5659 15.2599 16.4579 15.4879 16.2419C15.7159 16.0259 15.8299 15.7619 15.8299 15.4499V1.94992C15.8299 1.63792 15.7159 1.37092 15.4879 1.14892C15.2599 0.926917 14.9839 0.815918 14.6599 0.815918H14.6779ZM4.92192 14.0099H2.56392V6.89992H4.92192V14.0099ZM3.73392 5.92792H3.71592C3.33192 5.92792 3.01992 5.81092 2.77992 5.57692C2.53992 5.34292 2.41992 5.04892 2.41992 4.69492C2.41992 4.34092 2.54292 4.04692 2.78892 3.81292C3.03492 3.57892 3.35592 3.46192 3.75192 3.46192C4.14792 3.46192 4.46592 3.57892 4.70592 3.81292C4.94592 4.04692 5.06592 4.34092 5.06592 4.69492C5.06592 5.04892 4.94592 5.34292 4.70592 5.57692C4.46592 5.81092 4.14192 5.92792 3.73392 5.92792ZM13.4359 14.0099H11.0779V10.1939C11.0779 9.70192 10.9879 9.31792 10.8079 9.04192C10.6039 8.74192 10.2979 8.59192 9.88992 8.59192C9.57792 8.59192 9.31392 8.68192 9.09792 8.86192C8.90592 9.01792 8.76192 9.21592 8.66592 9.45592C8.61792 9.58792 8.59392 9.77992 8.59392 10.0319V14.0099H6.23592V10.6979C6.24792 8.44191 6.24792 7.17592 6.23592 6.89992H8.59392V7.90792C8.80992 7.57192 9.04392 7.31392 9.29592 7.13392C9.69192 6.86992 10.1659 6.73792 10.7179 6.73792C11.5339 6.73792 12.1819 6.99592 12.6619 7.51192C13.1779 8.07592 13.4359 8.87991 13.4359 9.92392V14.0099Z" fill="white"/>
</svg>
