<svg width="22" height="47" viewBox="0 0 22 47" fill="none" xmlns="http://www.w3.org/2000/svg">
<path fill-rule="evenodd" clip-rule="evenodd" d="M0.466003 11.434C0.466003 9.53268 0.941332 7.77703 1.892 6.16702C2.84267 4.55702 4.123 3.2767 5.733 2.32602C7.34301 1.37535 9.09866 0.900024 11 0.900024C12.9013 0.900024 14.657 1.37535 16.267 2.32602C17.877 3.2767 19.1573 4.55702 20.108 6.16702C21.0587 7.77703 21.534 9.53268 21.534 11.434V28.96C21.534 30.5854 21.189 32.111 20.499 33.537C19.809 34.963 18.8507 36.1744 17.624 37.171C16.3973 38.1677 15.0173 38.85 13.484 39.218V37.746C15.416 37.194 17.0107 36.113 18.268 34.503C19.5253 32.893 20.154 31.0454 20.154 28.96V11.434C20.154 9.77802 19.74 8.25236 18.912 6.85702C18.084 5.46168 16.9723 4.35003 15.577 3.52202C14.1817 2.69402 12.656 2.28002 11 2.28002C9.344 2.28002 7.81834 2.69402 6.423 3.52202C5.02766 4.35003 3.92367 5.46168 3.111 6.85702C2.29833 8.25236 1.892 9.77802 1.892 11.434V29.006C1.892 31.0607 2.513 32.893 3.755 34.503C4.99701 36.113 6.58399 37.194 8.516 37.746V39.218C6.98266 38.85 5.60268 38.1677 4.376 37.171C3.14933 36.1744 2.19101 34.9707 1.501 33.56C0.811 32.1494 0.466003 30.616 0.466003 28.96V11.434ZM9.942 42.3V30.57C9.942 30.3554 10.011 30.179 10.149 30.041C10.287 29.903 10.4633 29.834 10.678 29.834H11.322C11.5367 29.834 11.713 29.903 11.851 30.041C11.989 30.179 12.058 30.3554 12.058 30.57V42.3H15.186C15.4007 42.3 15.5233 42.346 15.554 42.438C15.5847 42.53 15.5387 42.6527 15.416 42.806L11.506 46.67C11.3833 46.8234 11.2147 46.9 11 46.9C10.7853 46.9 10.6167 46.8234 10.494 46.67L6.584 42.806C6.46134 42.6527 6.41534 42.53 6.446 42.438C6.47667 42.346 6.59934 42.3 6.814 42.3H9.942ZM11.322 11.342H10.678C10.4633 11.342 10.287 11.273 10.149 11.135C10.011 10.997 9.942 10.8207 9.942 10.606V6.28202C9.942 6.09802 10.011 5.92936 10.149 5.77602C10.287 5.62269 10.4633 5.54602 10.678 5.54602H11.322C11.5367 5.54602 11.713 5.62269 11.851 5.77602C11.989 5.92936 12.058 6.09802 12.058 6.28202V10.606C12.058 10.8207 11.989 10.997 11.851 11.135C11.713 11.273 11.5367 11.342 11.322 11.342Z" fill="#1D1D1D"/>
</svg>
