<svg width="17" height="14" viewBox="0 0 17 14" fill="none" xmlns="http://www.w3.org/2000/svg">
<path fill-rule="evenodd" clip-rule="evenodd" d="M14.3582 2.32599C14.6942 2.12199 14.9852 1.86699 15.2312 1.56099C15.4772 1.25499 15.6602 0.909994 15.7802 0.525992C15.1442 0.909994 14.4602 1.17399 13.7282 1.31799C13.4282 0.993991 13.0742 0.741993 12.6662 0.561992C12.2582 0.381991 11.8262 0.291992 11.3702 0.291992C10.7942 0.291992 10.2572 0.438991 9.75916 0.732992C9.26116 1.02699 8.86816 1.41999 8.58016 1.91199C8.29216 2.40399 8.14816 2.94399 8.14816 3.53199C8.14816 3.78399 8.17216 4.02999 8.22016 4.26999C6.90015 4.19799 5.65816 3.862 4.49416 3.26199C3.35415 2.67399 2.37616 1.882 1.56016 0.885992C1.27216 1.38999 1.12816 1.92999 1.12816 2.50599C1.12816 3.05799 1.25716 3.57099 1.51516 4.04499C1.77316 4.51899 2.12416 4.90599 2.56816 5.20599C2.04016 5.19399 1.54816 5.05599 1.09216 4.79199V4.84599C1.10416 5.34999 1.22116 5.82699 1.44316 6.27699C1.66516 6.72699 1.97416 7.10499 2.37016 7.41099C2.76616 7.71699 3.20416 7.91799 3.68416 8.01399C3.40816 8.08599 3.12616 8.12199 2.83816 8.12199C2.63416 8.12199 2.43616 8.10399 2.24416 8.06799C2.44816 8.716 2.82616 9.24699 3.37816 9.66099C3.93016 10.075 4.55415 10.294 5.25016 10.318C4.68616 10.75 4.06216 11.086 3.37816 11.326C2.69415 11.566 1.98016 11.686 1.23616 11.686C0.972157 11.686 0.714159 11.674 0.462158 11.65C1.19416 12.118 1.97415 12.472 2.80216 12.712C3.65416 12.964 4.53015 13.09 5.43016 13.09C6.84617 13.09 8.16015 12.814 9.37216 12.262C10.4762 11.746 11.4362 11.026 12.2522 10.102C13.0082 9.23799 13.5962 8.254 14.0162 7.14999C14.4122 6.06999 14.6102 4.99 14.6102 3.90999V3.49599C15.2462 3.02799 15.7862 2.464 16.2302 1.80399C15.6422 2.06799 15.0182 2.24199 14.3582 2.32599Z" fill="white"/>
</svg>
